<svg width="16" height="16" viewBox="0 0 16 16" fill="none" xmlns="http://www.w3.org/2000/svg">
<circle cx="8" cy="8" r="8" fill="#FF4D57"/>
<path fill-rule="evenodd" clip-rule="evenodd" d="M5.48082 6.19345C5.28406 5.9967 5.28406 5.67769 5.48082 5.48094C5.67757 5.28419 5.99657 5.28419 6.19333 5.48094L7.99995 7.28756L9.80657 5.48094C10.0033 5.28419 10.3223 5.28419 10.5191 5.48094C10.7158 5.67769 10.7158 5.9967 10.5191 6.19345L8.71246 8.00007L10.519 9.80663C10.7158 10.0034 10.7158 10.3224 10.519 10.5191C10.3223 10.7159 10.0033 10.7159 9.80651 10.5191L7.99995 8.71258L6.19339 10.5191C5.99663 10.7159 5.67763 10.7159 5.48088 10.5191C5.28412 10.3224 5.28412 10.0034 5.48088 9.80663L7.28744 8.00007L5.48082 6.19345Z" fill="white"/>
</svg>
