<svg width="87" height="87" viewBox="0 0 87 87" fill="none" xmlns="http://www.w3.org/2000/svg">
<path d="M43.5 0C19.5143 0 0 19.5143 0 43.5C0 67.4856 19.5143 87 43.5 87C67.4856 87 87 67.4856 87 43.5C87 19.5143 67.4856 0 43.5 0ZM66.1388 28.9212L38.0311 62.3828C37.7228 62.75 37.3392 63.0467 36.9062 63.2527C36.4732 63.4588 36.001 63.5693 35.5215 63.5769H35.465C34.996 63.5768 34.5323 63.478 34.1039 63.287C33.6755 63.0961 33.2921 62.8172 32.9784 62.4685L20.9323 49.0839C20.6264 48.7594 20.3884 48.3771 20.2323 47.9593C20.0763 47.5415 20.0053 47.0968 20.0236 46.6512C20.0419 46.2056 20.1491 45.7682 20.3388 45.3646C20.5286 44.961 20.7971 44.5995 21.1286 44.3011C21.4601 44.0028 21.8479 43.7738 22.2692 43.6275C22.6904 43.4812 23.1367 43.4205 23.5817 43.4492C24.0268 43.4778 24.4616 43.5951 24.8607 43.7942C25.2597 43.9932 25.615 44.2701 25.9055 44.6084L35.3772 55.1321L61.015 24.6172C61.5901 23.9524 62.4037 23.5405 63.28 23.4707C64.1563 23.4008 65.0249 23.6786 65.6981 24.2441C66.3712 24.8095 66.7948 25.6171 66.8772 26.4923C66.9597 27.3675 66.6945 28.24 66.1388 28.9212V28.9212Z" fill="#27BF5A"/>
</svg>
