<svg width="24" height="24" viewBox="0 0 24 24" fill="none" xmlns="http://www.w3.org/2000/svg">
<path d="M10.1997 3.06365L1.28219 18.6856C1.09832 19.0197 1.00104 19.3985 1.00001 19.7843C0.998987 20.1701 1.09425 20.5495 1.27631 20.8847C1.45839 21.2199 1.72092 21.4992 2.03781 21.695C2.3547 21.8906 2.71487 21.9958 3.08253 22H20.9175C21.2851 21.9958 21.6453 21.8906 21.9622 21.695C22.2791 21.4992 22.5416 21.2199 22.7237 20.8847C22.9058 20.5495 23.001 20.1701 23 19.7843C22.9989 19.3985 22.9017 19.0197 22.7178 18.6856L13.8003 3.06365C13.6126 2.73896 13.3484 2.4705 13.033 2.28419C12.7177 2.09789 12.3619 2 12 2C11.6381 2 11.2823 2.09789 10.967 2.28419C10.6516 2.4705 10.3874 2.73896 10.1997 3.06365Z" fill="#FFB800" stroke="#FFB800" stroke-width="2" stroke-linecap="round" stroke-linejoin="round"/>
<path d="M12 9V13" stroke="white" stroke-width="2" stroke-linecap="round" stroke-linejoin="round"/>
<path d="M12 17H12.01" stroke="white" stroke-width="2" stroke-linecap="round" stroke-linejoin="round"/>
</svg>
